<?xml version="1.0" encoding="UTF-8" standalone="no"?>
<!-- Created with Inkscape (http://www.inkscape.org/) -->

<svg
   width="218.60828mm"
   height="186.45651mm"
   viewBox="0 0 218.60828 186.45651"
   version="1.1"
   id="svg1"
   xml:space="preserve"
   xmlns="http://www.w3.org/2000/svg"
   xmlns:svg="http://www.w3.org/2000/svg"><defs
     id="defs1" /><g
     id="layer1"
     transform="translate(6.352036,-55.202992)"><g
       style="fill:#000000;stroke:#000000;stroke-width:3.04252;stroke-dasharray:none;stroke-opacity:1"
       id="g1"
       transform="matrix(2.3007246,0,0,2.3007246,-2.9104149,42.597918)"><path
         d="m 92,46 c 0,21.5 -17.4,39 -38.8,39 -7.9,0 -15.5,-2.4 -22,-6.8 -1.8,-1.3 -2.3,-3.7 -1,-5.6 1.3,-1.8 3.7,-2.3 5.6,-1 C 40.9,75.1 47,77 53.2,77 70.2,77 84,63.1 84,46 84,28.9 70.2,15 53.2,15 36.6,15 23,28.3 22.4,44.9 l 9.3,-9.4 c 1.6,-1.6 4.1,-1.6 5.7,0 1.6,1.6 1.6,4.1 0,5.7 L 22.1,56.5 c -0.8,0.8 -1.8,1.2 -2.8,1.2 -1.1,0 -2.1,-0.4 -2.8,-1.2 L 1.2,41.1 c -1.6,-1.6 -1.6,-4.1 0,-5.7 1.6,-1.6 4.1,-1.6 5.7,0 l 7.6,7.7 C 15.9,23 32.7,7 53.2,7 74.6,7 92,24.5 92,46 Z M 53,23.3 c -2.2,0 -4,1.8 -4,4 V 46 c 0,1.1 0.5,2.1 1.3,2.8 l 8.6,8.6 c 0.8,0.8 1.8,1.2 2.9,1.2 1,0 2.1,-0.4 2.8,-1.2 1.6,-1.6 1.5,-4.1 -0.1,-5.7 L 57,44.3 v -17 c 0,-2.2 -1.8,-4 -4,-4 z"
         id="path1"
         style="stroke:#000000;stroke-width:3.04252;stroke-dasharray:none;stroke-opacity:1" /></g></g></svg>
