<?xml version="1.0" encoding="UTF-8" standalone="no"?>
<!-- Uploaded to: SVG Repo, www.svgrepo.com, Generator: SVG Repo Mixer Tools -->

<svg
   width="386.95245"
   height="443.53162"
   viewBox="0 -0.5 12.092264 13.860363"
   fill="none"
   version="1.1"
   id="svg1"
   xmlns="http://www.w3.org/2000/svg"
   xmlns:svg="http://www.w3.org/2000/svg">
  <defs
     id="defs1" />
  <path
     d="M 6.7560503,2.8214087 C 6.9880813,2.5319558 6.9415143,2.1092572 6.6519903,1.8772704 6.3625543,1.6452926 5.9398653,1.6918691 5.7079233,1.9813219 Z M 0.95015645,8.991595 1.4588437,9.430135 c 0.00525,-0.0061 0.010379,-0.01227 0.015403,-0.01854 z m -0.1531354,0.374331 -0.6703393,-0.04379 -5.899e-4,0.01272 z M 0.67164695,12.07311 7.166471e-4,12.04203 c -0.00154,0.03332 -6e-4,0.06672 0.002830003,0.09994 z m 0.70478125,0.615228 0.021958,0.671289 c 0.044794,-0.0015 0.08932,-0.0074 0.1329323,-0.01782 z m 2.6865869,-0.636721 0.1549264,0.653557 0.010386,-0.0026 z m 0.3447792,-0.218509 0.518153,0.427436 0.0058,-0.0073 z M 10.340763,5.508166 C 10.572794,5.218731 10.526316,4.796041 10.236971,4.563974 9.9476263,4.331906 9.5248463,4.378384 9.2928153,4.667801 Z M 5.7106993,1.9811428 c -0.232032,0.2893723 -0.185643,0.7120888 0.103792,0.9441742 0.289345,0.2320763 0.712035,0.1856342 0.944156,-0.1037292 z m 1.946074,-1.35292936 0.523974,0.42022696 c 0.0088,-0.011006 0.01728,-0.02229 0.02544,-0.033833 z m 1.458817,-0.2865693 0.429674,-0.5162187 c -0.0214,-0.017803 -0.04388,-0.034254 -0.06725,-0.049272 z M 11.118888,2.0091192 11.594235,1.534632 C 11.579635,1.520026 11.564415,1.50611 11.548565,1.4929 Z m 0.301704,0.7351218 0.671646,0.00369 v 0 z M 11.110828,3.4759956 10.640676,2.9963145 c -0.01899,0.018663 -0.0369,0.038436 -0.05364,0.059221 z M 9.2929943,4.667533 C 9.0607833,4.956789 9.1070823,5.379478 9.3963383,5.611689 9.6855943,5.8439 10.108373,5.79769 10.340584,5.508435 Z M 6.8988873,2.3018317 C 6.8439013,1.9349873 6.5019883,1.6821615 6.1351793,1.737138 5.7682813,1.792106 5.5154743,2.1340544 5.5704593,2.5008989 Z m 3.00835,3.4516193 C 10.274762,5.703571 10.532227,5.36506 10.482346,4.997535 10.432376,4.629956 10.093955,4.372474 9.7263403,4.422418 Z M 5.7079233,1.9813219 0.42606605,8.571502 1.4742469,9.411597 6.7560503,2.8214087 Z M 0.44146915,8.552965 c -0.1856969,0.215374 -0.2961604,0.485466 -0.314671,0.769259 l 1.34044565,0.0874 c -4.925e-4,0.0075 -0.00344,0.01478 -0.0084,0.02051 z M 0.12609065,9.334851 7.166471e-4,12.042035 1.3425773,12.104185 1.4679513,9.397 Z m -0.1225442,2.807125 c 0.073138,0.70917 0.6823215,1.240935 1.39484015,1.217651 L 1.3544696,12.01705 c -0.00286,9e-5 -0.00427,-3.58e-4 -0.00519,-7.06e-4 -0.00128,-4.48e-4 -0.00297,-0.0014 -0.0047,-0.0029 -0.00174,-0.0015 -0.00286,-0.003 -0.00349,-0.0042 -4.568e-4,-9.08e-4 -0.00105,-0.0022 -0.00134,-0.0051 z M 1.5313189,13.341806 4.2179415,12.705085 3.9080886,11.39806 1.2215375,12.034781 Z m 2.6970109,-0.639229 c 0.2735845,-0.06949 0.5179745,-0.22433 0.6976175,-0.442122 L 3.8896408,11.405672 c 0.00217,-0.0025 0.00494,-0.0043 0.00806,-0.0051 z M 4.9317683,12.253291 10.340763,5.508166 9.2928153,4.667801 3.8838197,11.412926 Z m 1.826879,-9.4317032 1.4221,-1.7731474 -1.047948,-0.84044496 -1.4221,1.77314736 z m 1.447533,-1.8069805 c 0.12412,-0.17652666 0.365286,-0.22390906 0.546989,-0.10746346 l 0.724841,-1.1309904 c -0.787438,-0.5045948 -1.83261,-0.2992858 -2.370644,0.4656751 z M 8.6859153,0.85786294 10.689213,2.5253379 11.548563,1.4929004 9.5452643,-0.17457456 Z M 10.643541,2.4836152 c 0.06797,0.068141 0.105941,0.1606489 0.105404,0.2569362 l 1.343293,0.00738 c 0.0025,-0.454669 -0.176777,-0.8914901 -0.498003,-1.2132985 z m 0.105404,0.2569362 c -4.48e-4,0.096287 -0.03949,0.1883656 -0.108269,0.2557631 L 11.580981,3.955686 C 11.9057,3.637424 12.089731,3.2025996 12.092238,2.7479306 Z M 10.587033,3.0555358 9.2929943,4.667533 10.340584,5.508435 11.634623,3.896464 Z M 5.5704593,2.5008989 C 5.8832673,4.588646 7.8153713,6.037692 9.9072373,5.753451 L 9.7263403,4.422418 C 8.3625393,4.607729 7.1028883,3.662973 6.8988873,2.3018317 Z"
     fill="#000000"
     id="path1"
     style="stroke-width:0.895528" />
</svg>
