<?xml version="1.0" encoding="UTF-8" standalone="no"?>
<!-- Uploaded to: SVG Repo, www.svgrepo.com, Generator: SVG Repo Mixer Tools -->

<svg
   width="583.32349"
   height="516.66901"
   viewBox="0 0 17.499705 15.50007"
   fill="none"
   version="1.1"
   id="svg2"
   xmlns="http://www.w3.org/2000/svg"
   xmlns:svg="http://www.w3.org/2000/svg">
  <defs
     id="defs2" />
  <path
     fill-rule="evenodd"
     clip-rule="evenodd"
     d="m 4.2497818,2.9974947e-5 c 0.41422,0 0.75,0.335790005053 0.75,0.750000005053 V 12.97662 l 2.22774,-2.163 c 0.2972,-0.2886 0.772,-0.2816 1.0605,0.0156 0.2886,0.2971 0.2816,0.772 -0.0156,1.0605 l -3.49997,3.3984 c -0.29101,0.2826 -0.75392,0.2826 -1.04493,0 l -3.49999002,-3.3984 c -0.29717,-0.2885 -0.30416,-0.7634 -0.01561,-1.0605 0.28854,-0.2972 0.76337,-0.3042 1.06054002,-0.0156 l 2.22732,2.1626 V 0.75002998 c 0,-0.41421 0.33579,-0.750000005053 0.75,-0.750000005053 z"
     fill="#000000"
     id="path1" />
  <path
     fill-rule="evenodd"
     clip-rule="evenodd"
     d="m 12.727322,0.21191998 c 0.291,-0.28256 0.7539,-0.28256 1.0449,0 l 3.5,3.39838992 c 0.2971,0.28855 0.3041,0.76337 0.0156,1.06054 -0.2886,0.29718 -0.7634,0.30417 -1.0606,0.01562 l -2.2275,-2.16285 V 14.75002 c 0,0.4142 -0.3358,0.75 -0.75,0.75 -0.4142,0 -0.75,-0.3358 -0.75,-0.75 V 2.5235999 l -2.2275,2.16287 c -0.2972002,0.28855 -0.7720002,0.28156 -1.0606002,-0.01562 -0.2885,-0.29717 -0.2815,-0.77199 0.0157,-1.06054 z"
     fill="#000000"
     id="path2" />
</svg>
