<?xml version="1.0" encoding="UTF-8" standalone="no"?>
<!-- Created with Inkscape (http://www.inkscape.org/) -->

<svg
   width="165.50917mm"
   height="167.28951mm"
   viewBox="0 0 165.50917 167.2895"
   version="1.1"
   id="svg1"
   xml:space="preserve"
   xmlns="http://www.w3.org/2000/svg"
   xmlns:svg="http://www.w3.org/2000/svg"><defs
     id="defs1" /><g
     id="layer1"
     transform="translate(-22.284556,-10.640877)"><g
       style="fill:none"
       id="g1"
       transform="matrix(0.26458333,0,0,0.26458333,167.02262,117.17908)"><path
         style="fill:#000000;stroke:#000000;stroke-width:3.65858;stroke-linecap:round;stroke-linejoin:round;stroke-dasharray:none;stroke-opacity:1"
         d="m -508.80454,-385.64891 c -3.10426,-0.62104 -6.3173,-0.41404 -9.31619,0.6002 -9.43551,3.1917 -14.497,13.42818 -11.30505,22.86361 0,0 74.27522,220.38098 172.67186,383.859166 5.13664,8.533329 16.21814,11.287223 24.75181,6.151141 8.53333,-5.136642 11.28723,-16.218148 6.15115,-24.7518185 C -420.96985,-154.95907 -495.25712,-373.74366 -495.25712,-373.74366 c -2.06491,-6.10352 -7.22917,-10.64177 -13.54742,-11.90525 z m 198.37057,7.43169 c -3.94727,-0.0646 -7.91342,0.11427 -11.89593,0.55175 -49.40798,5.42731 -89.16643,41.91891 -119.89133,90.43109 -5.32938,8.41473 -2.8283,19.55652 5.58634,24.88603 8.41473,5.32937 19.55654,2.8283 24.88604,-5.58635 27.54489,-43.49122 59.65984,-70.17549 93.35754,-73.87708 19.56357,-2.14904 41.30947,5.7781 65.20583,23.97268 23.89635,18.19457 48.96369,46.21527 73.30109,79.99652 48.67481,67.56251 94.63569,157.871831 130.790041,238.46855947 4.076692,9.08789683 14.748626,13.15037453 23.836604,9.07386493 9.087896,-4.0766919 13.150375,-14.7486259 9.073865,-23.8366044 -36.695813,-81.80377 -83.1721,-173.63565 -134.43412,-244.78932 -25.63101,-35.57684 -52.40531,-66.05711 -80.71603,-87.61276 -24.77186,-18.86118 -51.46904,-31.22618 -79.09994,-31.67838 z m 307.3911645,0.47346 c -22.4975755,-1.30829 -41.4431875,11.76883 -60.6800755,29.68764 -19.236888,17.91882 -39.135739,42.4768 -60.081739,71.52472 -5.82684,8.07948 -3.99995,19.35287 4.08026,25.17868 8.07914,5.82556 19.35111,3.99878 25.17681,-4.08026 20.212076,-28.03013 39.214091,-51.14241 55.410593,-66.22915 16.196504,-15.08674 29.2164475,-20.34958 34.0008995,-20.07136 5.90673097,0.34349 10.883846,3.46368 17.2381075,15.56425 6.35426,12.10056 11.654703,31.87214 14.416038,56.20839 5.522671,48.67248 1.604109,115.4598 -11.155933,181.97685 -12.7600425,66.517042 -34.413643,133.020035 -62.633529,181.773669 -28.219887,48.753641 -61.401656,77.511831 -96.612056,78.755121 -36.48449,1.28765 -80.61894,-30.58007 -123.75537,-84.471952 -6.22405,-7.776455 -17.5737,-9.034931 -25.35016,-2.810884 -7.77646,6.22405 -9.03493,17.573706 -2.81088,25.350166 46.03556,57.51387 96.65947,99.97527 153.18764,97.98021 h 0.002 c 53.34724,-1.88369 95.278141,-42.69499 126.556889,-96.73321 C 15.225347,57.820885 37.45556,-11.691525 50.787136,-81.187927 64.118711,-150.68433 68.499429,-219.90883 62.358737,-274.02807 c -3.070346,-27.05962 -8.591535,-50.37966 -18.322945,-68.91141 -9.73141,-18.53175 -26.102173,-33.58443 -47.0785975,-34.80428 z M -172.91309,-187.04161 c -6.43857,-0.24621 -12.51941,2.96119 -15.95197,8.41402 -54.52483,86.62644 -111.90555,185.1419665 -162.75173,256.703892 -25.42309,35.780968 -49.42177,64.815708 -69.06613,81.536178 -9.82219,8.36023 -18.51317,13.46583 -24.58779,15.42444 -6.07362,1.9583 -8.59906,1.55316 -11.80833,-0.23112 h -0.002 c -8.85033,-4.92257 -18.2905,-17.76007 -24.99786,-38.93114 -6.70769,-21.1721 -10.58021,-49.618865 -11.16339,-81.800856 -1.16637,-64.363984 10.59203,-143.713524 33.12483,-214.175274 3.03408,-9.48688 -2.1967,-19.63715 -11.68344,-22.67162 -9.48742,-3.03393 -19.63794,2.19781 -22.67162,11.6853 -23.79883,74.42076 -36.08843,156.596245 -34.8341,225.813988 0.62717,34.608871 4.5818,65.966492 12.84284,92.041572 8.26103,26.07508 20.9306,47.92591 41.85385,59.56169 v 0.002 c 12.46654,6.9324 27.43923,7.2177 40.40741,3.03643 12.96818,-4.18127 24.86499,-12.04446 36.89938,-22.28763 24.0688,-20.48637 48.85819,-51.19315 75.08866,-88.110441 52.46096,-73.834599 109.8495,-172.549072 163.87572,-258.383349 5.30487,-8.42971 2.77213,-19.56375 -5.65718,-24.86925 -2.67884,-1.68617 -5.75428,-2.6376 -8.91729,-2.7587 z M 17.736868,89.312386 c -3.135787,-0.432449 -6.330161,-0.03194 -9.2621274,1.161261 -9.22625713,3.755094 -13.6611091,14.278893 -9.9052011,23.504813 15.9002175,39.0576 32.8675975,90.99589 32.8675975,90.99589 3.088148,9.47007 13.268797,14.64343 22.738718,11.55482 9.4691,-3.08816 14.64222,-13.2675 11.554826,-22.73685 0,0 -17.032457,-52.34084 -33.75299,-93.41347 C 29.548407,94.410986 24.119832,90.192474 17.736868,89.312386 Z"
         id="path1" /></g></g></svg>
